<svg width="25" height="24" viewBox="0 0 25 24" fill="none" xmlns="http://www.w3.org/2000/svg">
<path d="M12.9013 19.8624C12.1763 19.8624 11.4763 19.8374 10.7763 19.7374C10.6763 19.7124 10.5763 19.7374 10.5013 19.8124C9.10131 20.7874 7.70131 21.7874 6.25131 22.7124C6.07631 22.8124 5.90131 22.9124 5.70131 23.0374C5.62631 23.0624 5.57631 23.0874 5.50131 23.1124C5.27631 23.1374 5.12631 23.0124 5.17631 22.7874C5.25131 22.3874 5.37631 21.9874 5.50131 21.5874C5.77631 20.5874 6.07631 19.5874 6.35131 18.5874C6.37631 18.4874 6.37631 18.4624 6.27631 18.4124C4.90131 17.7124 3.70131 16.8124 2.72631 15.6374C1.75131 14.4624 1.10131 13.1374 0.851305 11.6374C0.576305 9.8374 0.876305 8.2124 1.72631 6.6874C2.55131 5.1874 3.72631 4.0124 5.15131 3.1124C6.67631 2.1374 8.32631 1.5124 10.1013 1.1874C11.4263 0.9374 12.7513 0.8874 14.1013 1.0124C16.6263 1.2374 18.9513 2.0124 21.0013 3.5374C22.3513 4.5374 23.4513 5.7874 24.1263 7.3374C25.2013 9.8374 24.9763 12.2624 23.5513 14.5874C22.6513 16.0624 21.3763 17.1874 19.8763 18.0374C18.4513 18.8624 16.9013 19.3874 15.2763 19.6624C14.4763 19.7874 13.7013 19.8374 12.9013 19.8624Z" fill="white"/>
<path d="M18.4763 9.7374C18.5013 9.7124 18.5263 9.6624 18.5513 9.6374C19.1513 9.0374 19.7263 8.4624 20.3263 7.8624C20.5513 7.6374 20.8263 7.6124 21.0763 7.7624C21.3513 7.9124 21.4763 8.2374 21.4013 8.5124C21.3763 8.6124 21.3013 8.7124 21.2263 8.7874C20.7513 9.2624 20.2513 9.7624 19.7763 10.2374C19.7013 10.3124 19.7013 10.3374 19.7763 10.4124C20.3263 11.1124 20.8513 11.8374 21.4013 12.5624C21.6263 12.8624 21.6013 13.2624 21.3263 13.5124C21.0263 13.7874 20.5513 13.7374 20.3013 13.4124C19.8263 12.7874 19.3513 12.1374 18.8513 11.5124C18.8513 11.4874 18.8263 11.4874 18.8263 11.4624C18.7763 11.4124 18.7513 11.3124 18.6763 11.2874C18.6013 11.2874 18.4513 11.5374 18.4513 11.6124C18.4513 12.0874 18.4513 12.5624 18.4513 13.0374C18.4513 13.3624 18.2013 13.6374 17.8763 13.6874C17.5763 13.7374 17.2513 13.5874 17.1263 13.2874C17.0763 13.1874 17.0513 13.0874 17.0513 12.9874C17.0513 11.4124 17.0513 9.8374 17.0513 8.2874C17.0513 7.8874 17.3513 7.5874 17.7513 7.5874C18.1263 7.5874 18.4513 7.8874 18.4513 8.2874C18.4513 8.7374 18.4513 9.1874 18.4513 9.6374C18.4513 9.6624 18.4513 9.7124 18.4513 9.7374C18.4513 9.7374 18.4513 9.7374 18.4763 9.7374Z" fill="#010201"/>
<path d="M5.42627 11.0374C5.42627 10.3874 5.42627 9.73735 5.42627 9.06235C5.42627 8.96235 5.40127 8.91235 5.30127 8.91235C5.00127 8.91235 4.67627 8.91235 4.37627 8.91235C3.97627 8.91235 3.67627 8.63735 3.67627 8.23735C3.67627 7.86235 3.97627 7.56235 4.37627 7.53735C5.55127 7.53735 6.70127 7.53735 7.87627 7.53735C8.25127 7.53735 8.52627 7.78735 8.57627 8.13735C8.60127 8.46235 8.40127 8.78735 8.07627 8.86235C8.00127 8.88735 7.92627 8.88735 7.87627 8.88735C7.57627 8.88735 7.25127 8.88735 6.95127 8.88735C6.85127 8.88735 6.82627 8.91235 6.82627 9.01235C6.82627 10.3124 6.82627 11.6374 6.82627 12.9374C6.82627 13.2874 6.65127 13.5374 6.35127 13.6374C5.90127 13.7874 5.45127 13.4624 5.45127 12.9874C5.42627 12.3374 5.42627 11.6874 5.42627 11.0374Z" fill="#010201"/>
<path d="M13.2263 10.6125C13.2263 9.8375 13.2263 9.0625 13.2263 8.2875C13.2263 7.9125 13.4763 7.6375 13.8513 7.5875C14.1763 7.5375 14.5013 7.7625 14.6013 8.1125C14.6263 8.1875 14.6263 8.2875 14.6263 8.3625C14.6263 9.6375 14.6263 10.9375 14.6263 12.2125C14.6263 12.3125 14.6513 12.3375 14.7513 12.3375C15.2013 12.3375 15.6513 12.3375 16.1013 12.3375C16.4513 12.3375 16.7263 12.6125 16.7513 12.9375C16.7763 13.2875 16.5013 13.5875 16.1513 13.5875C15.3763 13.5875 14.6013 13.5875 13.8263 13.5875C13.4763 13.5875 13.2263 13.2875 13.2263 12.9375C13.2263 12.1625 13.2263 11.3875 13.2263 10.6125Z" fill="#010201"/>
<path d="M12.7513 12.5375C12.4513 11.7875 12.1763 11.0125 11.8763 10.2625C11.6263 9.58747 11.3763 8.91247 11.1013 8.23747C10.9263 7.78747 10.4763 7.51247 10.0263 7.58747C9.65129 7.66247 9.37629 7.91247 9.25129 8.26247C8.77629 9.48747 8.30129 10.7375 7.85129 11.9625C7.75129 12.2625 7.60129 12.5375 7.55129 12.8625C7.45129 13.3625 7.62629 13.6125 8.10129 13.6875C8.47629 13.7375 8.72629 13.6125 8.85129 13.2625C8.92629 13.0375 9.02629 12.8125 9.10129 12.5875C9.12629 12.5125 9.15129 12.4875 9.22629 12.4875C9.55129 12.4875 9.87629 12.4875 10.1763 12.4875C10.5013 12.4875 10.8013 12.4875 11.1263 12.4875C11.2013 12.4875 11.2513 12.5125 11.2763 12.5875C11.3513 12.8125 11.4513 13.0375 11.5263 13.2875C11.6263 13.5875 11.8263 13.6875 12.1013 13.6875C12.2513 13.6875 12.4013 13.6625 12.5263 13.6125C12.7263 13.5375 12.8013 13.4125 12.8263 13.2125C12.9013 12.9875 12.8513 12.7625 12.7513 12.5375ZM10.0263 11.2625C9.90129 11.2625 9.75129 11.2625 9.62629 11.2625C9.52629 11.2625 9.52629 11.2375 9.55129 11.1625C9.72629 10.6625 9.90129 10.1625 10.0763 9.66247C10.1263 9.56247 10.1513 9.43747 10.2013 9.28747C10.4263 9.96247 10.6513 10.5875 10.9013 11.2375C10.6013 11.2625 10.3013 11.2625 10.0263 11.2625Z" fill="#010201"/>
</svg>
