<svg width="25" height="18" viewBox="0 0 25 18" fill="none" xmlns="http://www.w3.org/2000/svg">
<path d="M24.2447 3.21343C23.978 2.17343 23.1513 1.37343 22.1113 1.0801C20.2447 0.600098 12.7513 0.600098 12.7513 0.600098C12.7513 0.600098 5.25801 0.600098 3.36468 1.10676C2.32468 1.37343 1.52468 2.2001 1.23134 3.2401C0.751343 5.10676 0.751343 9.0001 0.751343 9.0001C0.751343 9.0001 0.751343 12.8934 1.25801 14.7868C1.52468 15.8268 2.35134 16.6268 3.39134 16.9201C5.25801 17.4001 12.7513 17.4001 12.7513 17.4001C12.7513 17.4001 20.2447 17.4001 22.138 16.8934C23.178 16.6268 23.978 15.8001 24.2713 14.7601C24.778 12.8934 24.778 8.97343 24.778 8.97343C24.778 8.97343 24.7513 5.10676 24.2447 3.21343ZM10.3513 12.6001V5.4001L16.5913 9.0001L10.3513 12.6001Z" fill="white"/>
</svg>
