<svg width="24" height="24" viewBox="0 0 24 24" fill="none" xmlns="http://www.w3.org/2000/svg">
<path d="M12 2.17412C15.1906 2.17412 15.5859 2.17412 16.8565 2.23059C18.0141 2.28706 18.6635 2.48471 19.0871 2.65412C19.6518 2.88 20.0471 3.13412 20.4706 3.55765C20.8941 3.98118 21.1482 4.37647 21.3741 4.94118C21.5435 5.36471 21.7412 5.98588 21.7976 7.17176C21.8541 8.44235 21.8541 8.80941 21.8541 12.0282C21.8541 15.2471 21.8541 15.6141 21.7976 16.8847C21.7412 18.0424 21.5435 18.6918 21.3741 19.1153C21.1482 19.68 20.8941 20.0753 20.4706 20.4988C20.0471 20.9224 19.6518 21.1765 19.0871 21.4024C18.6635 21.5718 18.0424 21.7694 16.8565 21.8259C15.5859 21.8824 15.2188 21.8824 12 21.8824C8.80941 21.8824 8.41412 21.8824 7.14353 21.8259C5.98588 21.7694 5.33647 21.5718 4.91294 21.4024C4.34824 21.1765 3.95294 20.9224 3.52941 20.4988C3.10588 20.0753 2.85176 19.68 2.62588 19.1153C2.45647 18.6918 2.25882 18.0706 2.20235 16.8847C2.14588 15.6141 2.14588 15.2471 2.14588 12.0282C2.14588 8.80941 2.14588 8.44235 2.20235 7.17176C2.25882 6.01412 2.45647 5.36471 2.62588 4.94118C2.85176 4.37647 3.10588 3.98118 3.52941 3.55765C3.95294 3.13412 4.34824 2.88 4.91294 2.65412C5.33647 2.48471 5.95765 2.28706 7.14353 2.23059C8.41412 2.17412 8.80941 2.17412 12 2.17412ZM12 0C8.75294 0 8.32941 0 7.05882 0.0847059C5.78824 0.141176 4.91294 0.338824 4.15059 0.649412C3.36 0.96 2.68235 1.35529 2.03294 2.03294C1.35529 2.71059 0.96 3.36 0.649412 4.15059C0.338824 4.91294 0.141176 5.78824 0.0847059 7.05882C0 8.32941 0 8.75294 0 12C0 15.2471 0 15.6706 0.0847059 16.9412C0.141176 18.2118 0.338824 19.0871 0.649412 19.8494C0.96 20.64 1.35529 21.3176 2.03294 21.9671C2.71059 22.6447 3.36 23.04 4.15059 23.3506C4.91294 23.6612 5.78824 23.8588 7.05882 23.9153C8.32941 24 8.75294 24 12 24C15.2471 24 15.6706 24 16.9412 23.9153C18.2118 23.8588 19.0871 23.6612 19.8494 23.3506C20.64 23.04 21.3176 22.6447 21.9671 21.9671C22.6447 21.2894 23.04 20.64 23.3506 19.8494C23.6612 19.0871 23.8588 18.2118 23.9153 16.9412C24 15.6706 24 15.2471 24 12C24 8.75294 24 8.32941 23.9153 7.05882C23.8588 5.78824 23.6612 4.91294 23.3506 4.15059C23.04 3.36 22.6447 2.68235 21.9671 2.03294C21.2894 1.35529 20.64 0.96 19.8494 0.649412C19.0871 0.338824 18.2118 0.141176 16.9412 0.0847059C15.6706 0 15.2471 0 12 0Z" fill="white"/>
<path d="M12 5.84473C8.58355 5.84473 5.84473 8.61179 5.84473 12C5.84473 15.3883 8.61179 18.1553 12 18.1553C15.4165 18.1553 18.1553 15.3883 18.1553 12C18.1553 8.61179 15.4165 5.84473 12 5.84473ZM12 16.0094C9.79767 16.0094 7.99061 14.2306 7.99061 12C7.99061 9.76943 9.76943 7.99061 12 7.99061C14.2306 7.99061 16.0094 9.76943 16.0094 12C16.0094 14.2306 14.2024 16.0094 12 16.0094Z" fill="white"/>
<path d="M18.4094 7.03063C19.2047 7.03063 19.8494 6.38592 19.8494 5.59063C19.8494 4.79534 19.2047 4.15063 18.4094 4.15063C17.6141 4.15063 16.9694 4.79534 16.9694 5.59063C16.9694 6.38592 17.6141 7.03063 18.4094 7.03063Z" fill="white"/>
</svg>
