<svg width="25" height="22" viewBox="0 0 25 22" fill="none" xmlns="http://www.w3.org/2000/svg">
<path d="M20.584 0.857666H4.91871C2.60908 0.857666 0.751343 2.71541 0.751343 5.02503V13.1589C0.751343 15.4685 2.60908 17.3263 4.91871 17.3263H10.7932L12.7513 21.1422L14.9605 17.3263H20.584C22.8936 17.3263 24.7513 15.4685 24.7513 13.1589V5.02503C24.7513 2.71541 22.8936 0.857666 20.584 0.857666Z" fill="white"/>
<path d="M5.92285 7.33471C5.52117 7.33471 5.1195 7.43513 4.76803 7.63597V5.57739H3.21155V11.9038H4.76803V11.6025C5.1195 11.8033 5.52117 11.9038 5.92285 11.9038C7.17808 11.9038 8.23247 10.8494 8.23247 9.59413C8.23247 8.3389 7.22828 7.33471 5.92285 7.33471ZM5.77222 10.5983C5.27013 10.5983 4.81824 10.1966 4.81824 9.64434C4.81824 9.14225 5.21992 8.69036 5.77222 8.69036C6.27431 8.69036 6.72619 9.09204 6.72619 9.64434C6.72619 10.1464 6.27431 10.5983 5.77222 10.5983Z" fill="#030403"/>
<path d="M10.743 7.08358C10.5924 6.43086 10.0903 5.5271 8.73462 5.5271V6.73212C8.73462 6.73212 9.33713 6.73212 9.33713 7.63589V11.8535H10.8434V7.63589C10.8434 7.63589 10.7932 7.43505 10.743 7.08358Z" fill="#030403"/>
<path d="M14.2074 7.28442C12.8518 7.28442 11.7974 8.38903 11.7974 9.69447C11.7974 10.9999 12.902 12.1045 14.2074 12.1045C15.5631 12.1045 16.6174 10.9999 16.6174 9.69447C16.6174 8.38903 15.5631 7.28442 14.2074 7.28442ZM14.2074 10.6986C13.6551 10.6986 13.2032 10.2468 13.2032 9.69447C13.2032 9.14216 13.6551 8.69028 14.2074 8.69028C14.7597 8.69028 15.2116 9.14216 15.2116 9.69447C15.2116 10.2468 14.7597 10.6986 14.2074 10.6986Z" fill="#030403"/>
<path d="M22.2911 12.3054V7.58577H20.835V7.78661C20.4835 7.58577 20.1321 7.48535 19.6802 7.48535C18.425 7.48535 17.4208 8.48954 17.4208 9.74477C17.4208 11 18.425 12.0042 19.6802 12.0042C20.0819 12.0042 20.4835 11.9038 20.835 11.7029V12.3556C20.835 13.1088 19.4794 12.9582 19.4794 12.9582V14.1632C22.6425 14.1632 22.2911 12.3054 22.2911 12.3054ZM19.7304 10.6485C19.2283 10.6485 18.8266 10.2469 18.8266 9.74477C18.8266 9.24267 19.2283 8.841 19.7304 8.841C20.2325 8.841 20.6342 9.24267 20.6342 9.74477C20.6342 10.1966 20.2325 10.6485 19.7304 10.6485Z" fill="#030403"/>
</svg>
